<svg width="44" height="44" viewBox="0 0 44 44" fill="none" xmlns="http://www.w3.org/2000/svg">
<path fill-rule="evenodd" clip-rule="evenodd" d="M28.6566 26.4389C29.5052 25.1688 30 23.6422 30 22C30 17.5817 26.4183 14 22 14C19.7577 14 17.7308 14.9225 16.2783 16.4087C18.0844 16.3057 21.2254 16.2192 24.6543 16.3918C26.0966 16.4645 26.3213 16.6458 26.9215 17.2401C27.2746 17.5897 27.9758 18.51 27.4845 18.9612L19.3698 26.6376C20.9101 26.8311 25.2871 26.8078 28.6566 26.4389ZM27.7047 27.6086C26.2533 29.0847 24.2336 30 22 30C17.5817 30 14 26.4183 14 22C14 20.2996 14.5305 18.7231 15.435 17.427C15.4587 17.4295 15.4831 17.4303 15.5081 17.4293C18.7313 17.3066 23.0145 17.2461 24.3907 17.411L16.5975 24.673C16.3259 24.9261 16.1735 25.3179 16.2618 25.6785C16.3186 25.911 16.4171 26.1832 16.606 26.4615C17.9272 28.4075 24.0276 28.0375 27.7047 27.6086Z" fill="#BCDFDF"/>
</svg>
