<svg width="44" height="44" viewBox="0 0 44 44" fill="none" xmlns="http://www.w3.org/2000/svg">
<rect x="3" y="3" width="38" height="38" rx="11" fill="#023F3F"/>
<path opacity="0.3" fill-rule="evenodd" clip-rule="evenodd" d="M31.152 28.1047C32.3193 26.358 33 24.2585 33 22C33 15.9249 28.0751 11 22 11C18.9162 11 16.1288 12.269 14.1315 14.3132C16.6147 14.1715 20.9342 14.0525 25.6496 14.2899C27.6329 14.3897 27.9418 14.6391 28.7671 15.4562C29.2526 15.937 30.2168 17.2023 29.5411 17.8228L18.3835 28.3778C20.5012 28.6439 26.5191 28.6119 31.152 28.1047ZM29.8427 29.7131C27.8472 31.7419 25.0705 33 22 33C15.9249 33 11 28.0751 11 22C11 19.6624 11.7292 17.4951 12.9725 15.7131C13.0052 15.7166 13.039 15.7178 13.0736 15.7165C17.5055 15.5477 23.3949 15.4645 25.2872 15.6912L14.4059 25.8308C14.1343 26.084 13.9938 26.4728 14.0623 26.8377C14.13 27.1983 14.2607 27.6606 14.5833 28.1357C16.3997 30.8112 24.7866 30.3028 29.8427 29.7131Z" fill="white"/>
<path d="M11 33L33 10" stroke="#8E8E8E" stroke-width="3" stroke-linecap="round"/>
</svg>
