<svg width="24" height="24" viewBox="0 0 24 24" fill="none" xmlns="http://www.w3.org/2000/svg">
<g clip-path="url(#clip0_1185_41194)">
<path d="M10.501 0.958411C10.9524 0.067272 11.9892 -0.261274 12.817 0.224583C13.105 0.393614 13.3416 0.648382 13.4986 0.958411L23.7914 21.2825C24.2427 22.1736 23.9375 23.2899 23.1098 23.7758C22.8591 23.9229 22.5781 24 22.2926 24H1.70708C0.764284 24 0 23.1772 0 22.1622C0 21.8548 0.0716139 21.5524 0.208287 21.2825L10.501 0.958411ZM11.9998 1.83813L1.70708 22.1622H22.2926L11.9998 1.83813ZM11.9999 17.5678C12.4377 17.5678 12.7984 17.9225 12.8477 18.3795L12.8535 18.4866V19.4055C12.8535 19.913 12.4713 20.3244 11.9999 20.3244C11.5622 20.3244 11.2014 19.9697 11.1521 19.5127L11.1464 19.4055V18.4866C11.1464 17.9792 11.5285 17.5678 11.9999 17.5678ZM11.9999 6.54104C12.4377 6.54104 12.7984 6.89577 12.8477 7.35277L12.8535 7.45993V14.8111C12.8535 15.3186 12.4713 15.73 11.9999 15.73C11.5622 15.73 11.2014 15.3752 11.1521 14.9182L11.1464 14.8111V7.45993C11.1464 6.95244 11.5285 6.54104 11.9999 6.54104Z" fill="white"/>
</g>
<defs>
<clipPath id="clip0_1185_41194">
<rect width="24" height="24" fill="white"/>
</clipPath>
</defs>
</svg>
